<mxfile host="app.diagrams.net" modified="2024-04-09T14:26:16.814Z" agent="Mozilla/5.0 (Macintosh; Intel Mac OS X 10_15_7) AppleWebKit/537.36 (KHTML, like Gecko) Chrome/123.0.0.0 Safari/537.36" etag="GjpxsR6hA15QSeMHyUmk" version="24.2.3" type="github">
  <diagram name="Page-1" id="aJdUUnHXH2kh8VmLgzIS">
    <mxGraphModel dx="1243" dy="831" grid="1" gridSize="10" guides="1" tooltips="1" connect="1" arrows="1" fold="1" page="1" pageScale="1" pageWidth="850" pageHeight="1100" math="0" shadow="0">
      <root>
        <mxCell id="0" />
        <mxCell id="1" parent="0" />
        <mxCell id="bp-vKxV_hlAgK0k2TYMo-3" value="" style="rounded=1;whiteSpace=wrap;html=1;dashed=1;strokeWidth=2;fillColor=none;" parent="1" vertex="1">
          <mxGeometry x="280" y="350" width="200" height="148.67" as="geometry" />
        </mxCell>
        <mxCell id="IRDAZbnhrmjxmqdq8_ro-2" value="" style="image;aspect=fixed;html=1;points=[];align=center;fontSize=12;image=img/lib/azure2/networking/DNS_Zones.svg;" parent="1" vertex="1">
          <mxGeometry x="510" y="70" width="64" height="64" as="geometry" />
        </mxCell>
        <mxCell id="IRDAZbnhrmjxmqdq8_ro-3" value="Client" style="sketch=0;outlineConnect=0;fontColor=#232F3E;gradientColor=none;strokeColor=#232F3E;fillColor=#ffffff;dashed=0;verticalLabelPosition=bottom;verticalAlign=top;align=center;html=1;fontSize=12;fontStyle=0;aspect=fixed;shape=mxgraph.aws4.resourceIcon;resIcon=mxgraph.aws4.client;" parent="1" vertex="1">
          <mxGeometry x="350" y="70" width="60" height="60" as="geometry" />
        </mxCell>
        <mxCell id="IRDAZbnhrmjxmqdq8_ro-4" value="" style="endArrow=classic;html=1;rounded=0;" parent="1" edge="1">
          <mxGeometry width="50" height="50" relative="1" as="geometry">
            <mxPoint x="420" y="80" as="sourcePoint" />
            <mxPoint x="500" y="80" as="targetPoint" />
          </mxGeometry>
        </mxCell>
        <mxCell id="IRDAZbnhrmjxmqdq8_ro-5" value="" style="endArrow=classic;html=1;rounded=0;" parent="1" edge="1">
          <mxGeometry width="50" height="50" relative="1" as="geometry">
            <mxPoint x="500" y="120" as="sourcePoint" />
            <mxPoint x="410" y="120" as="targetPoint" />
          </mxGeometry>
        </mxCell>
        <mxCell id="IRDAZbnhrmjxmqdq8_ro-6" value="domain.com" style="text;html=1;align=center;verticalAlign=middle;whiteSpace=wrap;rounded=0;" parent="1" vertex="1">
          <mxGeometry x="425" y="57" width="60" height="30" as="geometry" />
        </mxCell>
        <mxCell id="IRDAZbnhrmjxmqdq8_ro-7" value="IP address" style="text;html=1;align=center;verticalAlign=middle;whiteSpace=wrap;rounded=0;" parent="1" vertex="1">
          <mxGeometry x="425" y="98" width="60" height="30" as="geometry" />
        </mxCell>
        <mxCell id="IRDAZbnhrmjxmqdq8_ro-9" value="" style="endArrow=classic;html=1;rounded=0;entryX=0;entryY=0.5;entryDx=0;entryDy=0;entryPerimeter=0;" parent="1" edge="1" target="bp-vKxV_hlAgK0k2TYMo-7">
          <mxGeometry width="50" height="50" relative="1" as="geometry">
            <mxPoint x="379.5" y="160" as="sourcePoint" />
            <mxPoint x="379.5" y="230" as="targetPoint" />
          </mxGeometry>
        </mxCell>
        <mxCell id="IGtKASbwkltZqIFQSp29-2" value="&lt;font style=&quot;font-size: 24px;&quot;&gt;DB&lt;/font&gt;" style="shape=datastore;whiteSpace=wrap;html=1;" parent="1" vertex="1">
          <mxGeometry x="345" y="610" width="70" height="90" as="geometry" />
        </mxCell>
        <mxCell id="bp-vKxV_hlAgK0k2TYMo-1" value="Server1" style="sketch=0;outlineConnect=0;fontColor=#232F3E;gradientColor=none;fillColor=#232F3D;strokeColor=none;dashed=0;verticalLabelPosition=bottom;verticalAlign=top;align=center;html=1;fontSize=12;fontStyle=0;aspect=fixed;pointerEvents=1;shape=mxgraph.aws4.traditional_server;strokeWidth=1;" parent="1" vertex="1">
          <mxGeometry x="310" y="368.67" width="58.46" height="101.33" as="geometry" />
        </mxCell>
        <mxCell id="bp-vKxV_hlAgK0k2TYMo-2" value="Server2" style="sketch=0;outlineConnect=0;fontColor=#232F3E;gradientColor=none;fillColor=#232F3D;strokeColor=none;dashed=0;verticalLabelPosition=bottom;verticalAlign=top;align=center;html=1;fontSize=12;fontStyle=0;aspect=fixed;pointerEvents=1;shape=mxgraph.aws4.traditional_server;strokeWidth=1;" parent="1" vertex="1">
          <mxGeometry x="390" y="368.67" width="58.46" height="101.33" as="geometry" />
        </mxCell>
        <mxCell id="bp-vKxV_hlAgK0k2TYMo-5" value="" style="endArrow=classic;startArrow=classic;html=1;rounded=0;exitX=0.15;exitY=0.05;exitDx=0;exitDy=0;entryX=0.305;entryY=0.995;entryDx=0;entryDy=0;entryPerimeter=0;exitPerimeter=0;" parent="1" source="IGtKASbwkltZqIFQSp29-2" target="bp-vKxV_hlAgK0k2TYMo-3" edge="1">
          <mxGeometry width="50" height="50" relative="1" as="geometry">
            <mxPoint x="160" y="630" as="sourcePoint" />
            <mxPoint x="210" y="580" as="targetPoint" />
          </mxGeometry>
        </mxCell>
        <mxCell id="bp-vKxV_hlAgK0k2TYMo-6" value="" style="endArrow=classic;startArrow=classic;html=1;rounded=0;exitX=0.85;exitY=0.05;exitDx=0;exitDy=0;entryX=0.75;entryY=1;entryDx=0;entryDy=0;exitPerimeter=0;" parent="1" source="IGtKASbwkltZqIFQSp29-2" target="bp-vKxV_hlAgK0k2TYMo-3" edge="1">
          <mxGeometry width="50" height="50" relative="1" as="geometry">
            <mxPoint x="400" y="450" as="sourcePoint" />
            <mxPoint x="460" y="550" as="targetPoint" />
          </mxGeometry>
        </mxCell>
        <mxCell id="bp-vKxV_hlAgK0k2TYMo-7" value="Load Balancer" style="sketch=0;points=[[0.015,0.015,0],[0.985,0.015,0],[0.985,0.985,0],[0.015,0.985,0],[0.25,0,0],[0.5,0,0],[0.75,0,0],[1,0.25,0],[1,0.5,0],[1,0.75,0],[0.75,1,0],[0.5,1,0],[0.25,1,0],[0,0.75,0],[0,0.5,0],[0,0.25,0]];verticalLabelPosition=top;html=1;verticalAlign=bottom;aspect=fixed;align=center;pointerEvents=1;shape=mxgraph.cisco19.rect;prIcon=load_balancer;fillColor=#FAFAFA;strokeColor=#005073;labelPosition=center;rotation=90;textDirection=ltr;" parent="1" vertex="1">
          <mxGeometry x="348" y="230" width="64" height="50" as="geometry" />
        </mxCell>
        <mxCell id="bp-vKxV_hlAgK0k2TYMo-8" value="" style="endArrow=classic;html=1;rounded=0;exitX=1;exitY=0.5;exitDx=0;exitDy=0;exitPerimeter=0;" parent="1" source="bp-vKxV_hlAgK0k2TYMo-7" target="bp-vKxV_hlAgK0k2TYMo-1" edge="1">
          <mxGeometry width="50" height="50" relative="1" as="geometry">
            <mxPoint x="190" y="300" as="sourcePoint" />
            <mxPoint x="240" y="250" as="targetPoint" />
          </mxGeometry>
        </mxCell>
        <mxCell id="bp-vKxV_hlAgK0k2TYMo-9" value="" style="endArrow=classic;html=1;rounded=0;exitX=1;exitY=0.5;exitDx=0;exitDy=0;exitPerimeter=0;" parent="1" source="bp-vKxV_hlAgK0k2TYMo-7" target="bp-vKxV_hlAgK0k2TYMo-2" edge="1">
          <mxGeometry width="50" height="50" relative="1" as="geometry">
            <mxPoint x="359" y="289" as="sourcePoint" />
            <mxPoint x="353" y="379" as="targetPoint" />
          </mxGeometry>
        </mxCell>
        <mxCell id="bp-vKxV_hlAgK0k2TYMo-10" value="Private IP" style="text;html=1;align=center;verticalAlign=middle;whiteSpace=wrap;rounded=0;" parent="1" vertex="1">
          <mxGeometry x="395" y="320" width="60" height="30" as="geometry" />
        </mxCell>
        <mxCell id="bp-vKxV_hlAgK0k2TYMo-11" value="Private IP" style="text;html=1;align=center;verticalAlign=middle;whiteSpace=wrap;rounded=0;" parent="1" vertex="1">
          <mxGeometry x="308.46" y="320" width="60" height="30" as="geometry" />
        </mxCell>
        <mxCell id="bp-vKxV_hlAgK0k2TYMo-12" value="Public&lt;span style=&quot;background-color: initial;&quot;&gt;&amp;nbsp;IP&lt;/span&gt;" style="text;html=1;align=center;verticalAlign=middle;whiteSpace=wrap;rounded=0;" parent="1" vertex="1">
          <mxGeometry x="380" y="180" width="60" height="30" as="geometry" />
        </mxCell>
      </root>
    </mxGraphModel>
  </diagram>
</mxfile>
